<svg id="svg" version="1.1" width="400" height="400" xmlns="http://www.w3.org/2000/svg" xmlns:xlink="http://www.w3.org/1999/xlink" style="display: block;"><g id="svgg"><path id="path0" d="M139.025 36.250 C 139.052 41.752,137.343 83.475,133.956 160.000 C 131.437 216.915,131.437 217.240,133.943 218.513 C 135.012 219.056,138.949 221.042,142.693 222.927 C 146.437 224.812,149.725 226.612,150.000 226.927 C 150.275 227.242,153.588 229.075,157.361 231.000 C 161.135 232.925,166.251 235.534,168.731 236.797 C 171.210 238.060,173.484 238.850,173.782 238.551 C 174.284 238.049,173.565 217.411,169.460 114.500 C 168.626 93.600,167.955 72.000,167.968 66.500 C 167.981 61.000,167.699 50.763,167.342 43.750 L 166.691 31.000 152.846 31.000 L 139.000 31.000 139.025 36.250 M232.023 67.250 C 232.045 74.373,231.022 95.914,226.978 173.500 C 224.545 220.189,224.558 217.621,226.750 218.343 C 227.713 218.660,233.450 221.615,239.500 224.910 C 257.925 234.943,266.875 239.458,267.364 238.968 C 267.620 238.710,266.980 222.525,265.941 203.000 C 263.211 151.702,262.017 125.974,260.978 96.000 C 260.472 81.425,259.778 67.362,259.435 64.750 L 258.812 60.000 245.406 60.000 L 232.000 60.000 232.023 67.250 M13.000 290.000 L 13.000 369.000 200.008 369.000 L 387.017 369.000 386.758 313.755 L 386.500 258.509 376.500 253.388 C 371.000 250.571,361.550 245.673,355.500 242.502 C 349.450 239.331,339.100 233.935,332.500 230.511 C 325.900 227.087,314.773 221.296,307.774 217.643 C 300.775 213.989,294.596 211.000,294.042 211.000 C 293.404 211.000,292.938 219.592,292.768 234.529 L 292.500 258.058 283.000 253.184 C 269.062 246.033,242.113 232.069,229.500 225.460 C 208.902 214.670,201.627 211.000,200.831 211.000 C 200.394 211.000,199.916 221.574,199.768 234.499 L 199.500 257.998 195.000 255.918 C 192.525 254.775,189.600 253.330,188.500 252.708 C 186.555 251.608,175.941 246.069,155.500 235.488 C 146.563 230.862,139.385 227.107,115.608 214.620 C 105.242 209.176,106.000 207.602,106.000 234.564 L 106.000 258.128 101.750 255.938 C 99.412 254.734,96.600 253.271,95.500 252.686 C 91.116 250.358,48.173 228.084,32.000 219.749 C 27.875 217.623,22.517 214.785,20.093 213.442 C 17.669 212.099,15.081 211.000,14.343 211.000 C 13.230 211.000,13.000 224.557,13.000 290.000 M132.000 321.000 L 132.000 348.000 86.000 348.000 L 40.000 348.000 40.000 321.000 L 40.000 294.000 86.000 294.000 L 132.000 294.000 132.000 321.000 M246.000 321.000 L 246.000 348.000 200.000 348.000 L 154.000 348.000 154.000 321.000 L 154.000 294.000 200.000 294.000 L 246.000 294.000 246.000 321.000 M360.000 321.000 L 360.000 348.000 314.000 348.000 L 268.000 348.000 268.000 321.000 L 268.000 294.000 314.000 294.000 L 360.000 294.000 360.000 321.000 " stroke="none" fill="#000000" fill-rule="evenodd"></path></g></svg>